HIERARCHY
ROOT mixamorig:Hips
{
	OFFSET 0.000000 102.625267 -0.521241
	CHANNELS 6 Xposition Yposition Zposition Xrotation Yrotation Zrotation
	JOINT mixamorig:Spine
	{
		OFFSET 0.000000 5.645721 -0.031929
		CHANNELS 3 Xrotation Yrotation Zrotation
		JOINT mixamorig:Spine1
		{
			OFFSET 0.000000 6.586685 -0.037251
			CHANNELS 3 Xrotation Yrotation Zrotation
			JOINT mixamorig:Spine2
			{
				OFFSET 0.000000 7.527618 -0.042572
				CHANNELS 3 Xrotation Yrotation Zrotation
				JOINT mixamorig:Neck
				{
					OFFSET 0.000000 8.468590 -0.047894
					CHANNELS 3 Xrotation Yrotation Zrotation
					JOINT mixamorig:Head
					{
						OFFSET 0.000000 5.998901 -1.158958
						CHANNELS 3 Xrotation Yrotation Zrotation
						JOINT mixamorig:HeadTop_End
						{
							OFFSET 0.000000 21.748810 -4.201760
							CHANNELS 3 Xrotation Yrotation Zrotation
							End Site
							{
								OFFSET 0.000000 22.150970 0.000000
							}
						}
					}
				}
				JOINT mixamorig:LeftShoulder
				{
					OFFSET 3.414614 7.343132 -0.058928
					CHANNELS 3 Xrotation Yrotation Zrotation
					JOINT mixamorig:LeftArm
					{
						OFFSET 6.829548 -2.246910 -0.022071
						CHANNELS 3 Xrotation Yrotation Zrotation
						JOINT mixamorig:LeftForeArm
						{
							OFFSET 24.198503 -0.424179 0.257802
							CHANNELS 3 Xrotation Yrotation Zrotation
							JOINT mixamorig:LeftHand
							{
								OFFSET 21.584717 -0.002335 0.669575
								CHANNELS 3 Xrotation Yrotation Zrotation
								JOINT mixamorig:LeftHandThumb1
								{
									OFFSET 2.193897 -1.259628 1.956942
									CHANNELS 3 Xrotation Yrotation Zrotation
									JOINT mixamorig:LeftHandThumb2
									{
										OFFSET 1.755203 -1.007660 1.565605
										CHANNELS 3 Xrotation Yrotation Zrotation
										JOINT mixamorig:LeftHandThumb3
										{
											OFFSET 2.535126 -0.998764 1.490660
											CHANNELS 3 Xrotation Yrotation Zrotation
											JOINT mixamorig:LeftHandThumb4
											{
												OFFSET 2.398251 -0.721657 1.023775
												CHANNELS 3 Xrotation Yrotation Zrotation
												End Site
												{
													OFFSET 2.205696 -0.773872 1.362551
												}
											}
										}
									}
								}
								JOINT mixamorig:LeftHandIndex1
								{
									OFFSET 7.166248 -0.069405 2.369028
									CHANNELS 3 Xrotation Yrotation Zrotation
									JOINT mixamorig:LeftHandIndex2
									{
										OFFSET 2.989986 -0.015724 0.245918
										CHANNELS 3 Xrotation Yrotation Zrotation
										JOINT mixamorig:LeftHandIndex3
										{
											OFFSET 2.739197 -0.058952 0.219132
											CHANNELS 3 Xrotation Yrotation Zrotation
											JOINT mixamorig:LeftHandIndex4
											{
												OFFSET 2.326500 -0.032570 0.188458
												CHANNELS 3 Xrotation Yrotation Zrotation
												End Site
												{
													OFFSET 2.326485 -0.032578 0.188548
												}
											}
										}
									}
								}
								JOINT mixamorig:LeftHandMiddle1
								{
									OFFSET 7.394897 0.286369 0.654762
									CHANNELS 3 Xrotation Yrotation Zrotation
									JOINT mixamorig:LeftHandMiddle2
									{
										OFFSET 3.376106 0.152466 -0.003692
										CHANNELS 3 Xrotation Yrotation Zrotation
										JOINT mixamorig:LeftHandMiddle3
										{
											OFFSET 3.185104 -0.185410 -0.047914
											CHANNELS 3 Xrotation Yrotation Zrotation
											JOINT mixamorig:LeftHandMiddle4
											{
												OFFSET 2.742905 0.223846 0.010354
												CHANNELS 3 Xrotation Yrotation Zrotation
												End Site
												{
													OFFSET 2.742889 0.224251 0.006757
												}
											}
										}
									}
								}
								JOINT mixamorig:LeftHandRing1
								{
									OFFSET 7.508747 0.282753 -1.072900
									CHANNELS 3 Xrotation Yrotation Zrotation
									JOINT mixamorig:LeftHandRing2
									{
										OFFSET 2.821857 0.317802 -0.177266
										CHANNELS 3 Xrotation Yrotation Zrotation
										JOINT mixamorig:LeftHandRing3
										{
											OFFSET 2.672325 0.088310 -0.196165
											CHANNELS 3 Xrotation Yrotation Zrotation
											JOINT mixamorig:LeftHandRing4
											{
												OFFSET 2.272652 -0.053627 -0.183955
												CHANNELS 3 Xrotation Yrotation Zrotation
												End Site
												{
													OFFSET 2.272919 -0.054016 -0.180438
												}
											}
										}
									}
								}
								JOINT mixamorig:LeftHandPinky1
								{
									OFFSET 7.285820 0.522377 -2.660948
									CHANNELS 3 Xrotation Yrotation Zrotation
									JOINT mixamorig:LeftHandPinky2
									{
										OFFSET 2.466278 0.082008 -0.249570
										CHANNELS 3 Xrotation Yrotation Zrotation
										JOINT mixamorig:LeftHandPinky3
										{
											OFFSET 1.940475 0.021858 -0.202004
											CHANNELS 3 Xrotation Yrotation Zrotation
											JOINT mixamorig:LeftHandPinky4
											{
												OFFSET 1.645287 0.153595 -0.153405
												CHANNELS 3 Xrotation Yrotation Zrotation
												End Site
												{
													OFFSET 1.645088 0.153801 -0.155289
												}
											}
										}
									}
								}
							}
						}
					}
				}
				JOINT mixamorig:RightShoulder
				{
					OFFSET -3.414604 7.343132 -0.036860
					CHANNELS 3 Xrotation Yrotation Zrotation
					JOINT mixamorig:RightArm
					{
						OFFSET -6.829551 -2.246986 0.022068
						CHANNELS 3 Xrotation Yrotation Zrotation
						JOINT mixamorig:RightForeArm
						{
							OFFSET -24.198494 -0.424141 0.158696
							CHANNELS 3 Xrotation Yrotation Zrotation
							JOINT mixamorig:RightHand
							{
								OFFSET -21.584698 -0.002243 0.686977
								CHANNELS 3 Xrotation Yrotation Zrotation
								JOINT mixamorig:RightHandThumb1
								{
									OFFSET -2.242882 -1.296806 1.978855
									CHANNELS 3 Xrotation Yrotation Zrotation
									JOINT mixamorig:RightHandThumb2
									{
										OFFSET -1.794239 -1.037361 1.583064
										CHANNELS 3 Xrotation Yrotation Zrotation
										JOINT mixamorig:RightHandThumb3
										{
											OFFSET -2.504150 -0.962166 1.471556
											CHANNELS 3 Xrotation Yrotation Zrotation
											JOINT mixamorig:RightHandThumb4
											{
												OFFSET -2.346046 -0.743172 0.992235
												CHANNELS 3 Xrotation Yrotation Zrotation
												End Site
												{
													OFFSET -2.157112 -0.792709 1.326359
												}
											}
										}
									}
								}
								JOINT mixamorig:RightHandIndex1
								{
									OFFSET -7.174488 -0.001839 2.366265
									CHANNELS 3 Xrotation Yrotation Zrotation
									JOINT mixamorig:RightHandIndex2
									{
										OFFSET -2.935219 -0.016853 0.287245
										CHANNELS 3 Xrotation Yrotation Zrotation
										JOINT mixamorig:RightHandIndex3
										{
											OFFSET -2.786827 -0.129890 0.255971
											CHANNELS 3 Xrotation Yrotation Zrotation
											JOINT mixamorig:RightHandIndex4
											{
												OFFSET -2.343559 0.168816 0.256164
												CHANNELS 3 Xrotation Yrotation Zrotation
												End Site
												{
													OFFSET -2.344208 0.169510 0.249690
												}
											}
										}
									}
								}
								JOINT mixamorig:RightHandMiddle1
								{
									OFFSET -7.274693 0.327965 0.656181
									CHANNELS 3 Xrotation Yrotation Zrotation
									JOINT mixamorig:RightHandMiddle2
									{
										OFFSET -3.309677 0.091591 0.032863
										CHANNELS 3 Xrotation Yrotation Zrotation
										JOINT mixamorig:RightHandMiddle3
										{
											OFFSET -3.186844 -0.122513 0.000971
											CHANNELS 3 Xrotation Yrotation Zrotation
											JOINT mixamorig:RightHandMiddle4
											{
												OFFSET -2.671951 -0.322540 -0.031001
												CHANNELS 3 Xrotation Yrotation Zrotation
												End Site
												{
													OFFSET -2.671928 -0.323486 -0.021820
												}
											}
										}
									}
								}
								JOINT mixamorig:RightHandRing1
								{
									OFFSET -7.453640 0.430428 -1.170334
									CHANNELS 3 Xrotation Yrotation Zrotation
									JOINT mixamorig:RightHandRing2
									{
										OFFSET -2.808174 0.165817 -0.117934
										CHANNELS 3 Xrotation Yrotation Zrotation
										JOINT mixamorig:RightHandRing3
										{
											OFFSET -2.730080 0.127754 -0.119542
											CHANNELS 3 Xrotation Yrotation Zrotation
											JOINT mixamorig:RightHandRing4
											{
												OFFSET -2.349426 0.078133 -0.107466
												CHANNELS 3 Xrotation Yrotation Zrotation
												End Site
												{
													OFFSET -2.349503 0.077988 -0.106043
												}
											}
										}
									}
								}
								JOINT mixamorig:RightHandPinky1
								{
									OFFSET -7.364456 0.463486 -2.604800
									CHANNELS 3 Xrotation Yrotation Zrotation
									JOINT mixamorig:RightHandPinky2
									{
										OFFSET -2.430134 0.174614 -0.251330
										CHANNELS 3 Xrotation Yrotation Zrotation
										JOINT mixamorig:RightHandPinky3
										{
											OFFSET -1.953583 0.007492 -0.220999
											CHANNELS 3 Xrotation Yrotation Zrotation
											JOINT mixamorig:RightHandPinky4
											{
												OFFSET -1.582039 0.276558 -0.139972
												CHANNELS 3 Xrotation Yrotation Zrotation
												End Site
												{
													OFFSET -1.581284 0.277252 -0.147002
												}
											}
										}
									}
								}
							}
						}
					}
				}
			}
		}
	}
	JOINT mixamorig:LeftUpLeg
	{
		OFFSET 6.620181 -8.816864 -0.447179
		CHANNELS 3 Xrotation Yrotation Zrotation
		JOINT mixamorig:LeftLeg
		{
			OFFSET 2.748989 -36.076775 0.650871
			CHANNELS 3 Xrotation Yrotation Zrotation
			JOINT mixamorig:LeftFoot
			{
				OFFSET 1.089303 -46.239017 1.019056
				CHANNELS 3 Xrotation Yrotation Zrotation
				JOINT mixamorig:LeftToeBase
				{
					OFFSET -0.371088 -10.380511 12.650617
					CHANNELS 3 Xrotation Yrotation Zrotation
					JOINT mixamorig:LeftToe_End
					{
						OFFSET -0.094684 -0.116785 6.663326
						CHANNELS 3 Xrotation Yrotation Zrotation
						End Site
						{
							OFFSET -0.094684 -0.116785 6.663326
						}
					}
				}
			}
		}
	}
	JOINT mixamorig:RightUpLeg
	{
		OFFSET -6.620174 -8.816818 -0.447182
		CHANNELS 3 Xrotation Yrotation Zrotation
		JOINT mixamorig:RightLeg
		{
			OFFSET -2.748991 -36.076790 0.753614
			CHANNELS 3 Xrotation Yrotation Zrotation
			JOINT mixamorig:RightFoot
			{
				OFFSET -1.089311 -46.239029 0.372114
				CHANNELS 3 Xrotation Yrotation Zrotation
				JOINT mixamorig:RightToeBase
				{
					OFFSET 0.371103 -10.380659 13.284531
					CHANNELS 3 Xrotation Yrotation Zrotation
					JOINT mixamorig:RightToe_End
					{
						OFFSET 0.094689 -0.116865 6.675873
						CHANNELS 3 Xrotation Yrotation Zrotation
						End Site
						{
							OFFSET 0.094687 -0.116865 6.675871
						}
					}
				}
			}
		}
	}
}
MOTION
Frames: 6
Frame Time: 0.016667
2.445659 84.456253 -0.528522 -3.133732 -59.877400 -4.025808 22.944060 5.022460 -13.624181 11.773543 0.557472 -1.986127 11.777095 0.769581 -1.908645 -11.045955 8.772292 -10.908680 -27.192808 32.575365 -7.133765 0.000000 0.000000 -0.000001 2.504181 -25.024153 4.123702 -77.564120 -64.084988 -66.209566 -10.151172 -84.426111 -10.196144 -0.645107 -17.393259 9.152874 3.493291 2.539397 3.031299 2.273327 -0.736988 -4.062591 -1.708601 0.480801 -0.483909 0.000004 -0.000005 -0.000000 -0.432659 -1.198353 6.024550 0.270239 0.764010 -2.961477 0.766774 1.695192 -7.719313 0.000001 -0.000001 -0.000003 0.203583 -4.358272 -3.688226 0.020319 1.317108 -3.410647 0.486881 3.694383 -19.752414 0.000002 0.000003 0.000003 -0.177845 -5.875048 -16.182641 -0.699663 2.989862 -11.527902 -0.680062 3.440145 -13.991577 -0.000002 -0.000002 -0.000000 0.277753 -2.558184 -17.586342 -1.229723 0.966062 -21.099935 -1.547334 5.927942 -26.148338 -0.000000 0.000000 0.000000 -3.019766 -53.871413 -2.207895 -6.136455 -10.872982 24.182367 -1.413258 55.210810 1.728109 -9.381994 -1.072598 -10.200701 0.452862 -20.079061 -7.496717 3.373449 -8.735158 4.063293 -2.987856 -2.043648 -0.582234 -0.000000 -0.000006 -0.000002 0.097452 -1.315704 1.170101 1.172981 -2.190126 9.760366 3.006116 -3.877069 22.570936 0.000000 0.000001 -0.000002 0.261550 2.999205 6.407289 0.341581 -2.673807 11.450585 0.585006 -3.250661 14.029261 0.000000 -0.000000 -0.000002 0.012455 5.064042 12.396699 -0.358624 -3.986924 18.392400 -0.274089 -4.657095 21.489413 -0.000000 0.000001 0.000001 -0.775475 7.742857 16.548536 -1.462820 -4.264941 18.208538 -1.920275 -7.340916 34.536578 0.000000 -0.000001 -0.000001 -51.641407 27.365633 18.381612 76.938324 12.027349 -5.162123 -34.614084 10.226220 8.403473 -1.366743 0.000001 0.000002 0.000000 0.000000 0.000000 -58.296887 -20.080872 -17.427677 60.751930 -9.456218 11.316037 -12.975430 -20.872566 -17.987998 -1.492283 -0.000031 -0.000001 -0.000000 0.000001 -0.000000 
2.470256 84.493317 -0.692175 -3.204252 -59.381166 -4.032965 23.167720 5.016187 -13.773590 11.565607 0.573588 -1.998347 11.569050 0.781703 -1.921487 -10.233050 8.707908 -11.179402 -27.599034 32.621141 -6.882738 0.000003 -0.000000 -0.000001 2.673014 -25.616952 3.289846 -74.408272 -65.804945 -63.879474 -9.048645 -83.759184 -9.099631 -1.195751 -16.784662 9.055227 3.447151 3.234288 3.145382 2.269468 -0.386856 -4.020549 -1.723131 0.654576 -0.457670 0.000001 0.000001 0.000000 -0.435198 -1.208701 6.067783 0.200485 0.597536 -2.229193 0.737934 1.639953 -7.465808 -0.000001 0.000001 0.000000 0.202873 -4.414007 -3.442930 0.013828 1.176405 -2.789452 0.475185 3.653527 -19.564590 -0.000001 -0.000001 0.000003 -0.165825 -5.991318 -15.684623 -0.682303 2.879633 -11.050307 -0.677908 3.416441 -13.888844 -0.000000 -0.000001 0.000002 0.254415 -2.716346 -16.887950 -1.222721 0.875890 -20.736837 -1.547204 5.918849 -26.112298 0.000001 -0.000000 0.000001 -2.186025 -53.191632 -2.158229 -4.680847 -8.807771 23.892085 -1.429542 55.515371 1.741398 -7.473784 -1.588317 -9.367662 0.457164 -20.047930 -7.489998 3.373694 -8.719376 4.065003 -2.987132 -2.035821 -0.580958 -0.000001 -0.000001 -0.000001 0.077186 -1.273309 0.973292 1.134320 -2.134363 9.476759 2.999295 -3.870464 22.530359 0.000003 0.000001 -0.000002 0.254062 3.057203 6.133921 0.320860 -2.587843 11.035744 0.577899 -3.228499 13.919758 -0.000001 0.000001 0.000000 0.015731 5.143812 12.027383 -0.366771 -3.862694 17.815777 -0.279442 -4.615311 21.293970 -0.000001 -0.000001 -0.000002 -0.750590 7.845135 16.101730 -1.430886 -4.102703 17.508005 -1.923801 -7.278087 34.273736 0.000002 -0.000001 -0.000001 -51.447942 26.956100 17.843755 76.831309 12.031726 -5.082717 -34.350579 10.204549 8.387261 -1.116174 0.000006 0.000005 -0.000000 0.000000 0.000000 -58.181662 -19.839125 -17.400233 60.703477 -9.918811 11.323047 -12.820613 -20.824147 -17.777873 -1.107805 0.000028 0.000009 -0.000000 -0.000003 -0.000000 
2.478595 84.588219 -0.852728 -3.277173 -58.888088 -4.041727 23.262127 5.083466 -13.946707 11.352012 0.595638 -2.053267 11.355996 0.798946 -1.975863 -9.429879 8.614915 -11.228777 -27.834915 32.639712 -6.505206 0.000000 0.000000 0.000000 2.853571 -26.250362 2.444404 -69.466938 -67.549949 -60.993753 -7.436748 -82.431634 -7.499730 -1.484537 -16.493452 9.537360 3.421378 3.613560 3.207920 2.267244 -0.195736 -3.997594 -1.731069 0.749445 -0.443320 0.000003 -0.000001 -0.000001 -0.420591 -1.149551 5.820714 0.147455 0.466876 -1.657339 0.703369 1.573035 -7.159311 -0.000001 -0.000002 0.000001 0.202670 -4.438222 -3.336134 0.009722 1.062921 -2.288577 0.460362 3.601000 -19.323353 -0.000001 -0.000000 0.000002 -0.151303 -6.119842 -15.133264 -0.666735 2.785483 -10.641825 -0.674579 3.380495 -13.733113 -0.000002 -0.000002 0.000001 0.227094 -2.921516 -15.983329 -1.215772 0.792840 -20.402342 -1.546865 5.896375 -26.023205 0.000000 0.000000 0.000000 -1.695045 -52.222868 -2.283247 -1.978483 -6.322429 24.041834 -1.441978 55.744674 1.751592 -5.855889 -2.209483 -8.452778 0.432254 -20.227387 -7.528920 3.372307 -8.810567 4.055053 -2.991305 -2.080926 -0.588200 0.000001 -0.000005 0.000001 0.090059 -1.300298 1.098476 1.097150 -2.080193 9.202419 2.987623 -3.859136 22.460934 0.000001 0.000000 -0.000000 0.253571 3.060973 6.115984 0.302998 -2.511366 10.667407 0.568600 -3.199307 13.775787 -0.000001 -0.000001 -0.000001 0.017691 5.186420 11.829988 -0.372653 -3.758286 17.331626 -0.285714 -4.564762 21.057564 -0.000001 0.000001 0.000001 -0.731006 7.923218 15.759854 -1.403317 -3.970440 16.935587 -1.927556 -7.204237 33.964987 -0.000001 -0.000002 0.000001 -51.123573 26.459733 17.110961 76.590688 12.035591 -4.944689 -34.044265 10.437081 8.355844 -0.962307 -0.000000 0.000003 0.000000 -0.000000 -0.000000 -57.889152 -19.326860 -17.141089 60.506406 -10.189355 11.321075 -12.631343 -21.288740 -17.501250 -0.918593 0.000016 -0.000001 -0.000000 -0.000003 -0.000000 
2.471749 84.764984 -1.010666 -3.319445 -58.387654 -4.003785 23.269756 5.204590 -14.137387 11.132886 0.622357 -2.142572 11.137899 0.820061 -2.063780 -8.638270 8.495829 -11.095291 -27.919641 32.618921 -6.064733 0.000002 -0.000000 0.000000 3.036885 -26.925828 1.616209 -62.557655 -68.878544 -57.000446 -5.999387 -80.657991 -6.078345 -1.567933 -16.489569 10.397835 3.414942 3.707218 3.223409 2.266687 -0.148553 -3.991929 -1.733041 0.772865 -0.439779 0.000000 0.000005 -0.000000 -0.399986 -1.067937 5.479381 0.109223 0.370274 -1.236117 0.666349 1.500296 -6.827215 -0.000000 -0.000001 -0.000000 0.202519 -4.458453 -3.247168 0.007184 0.973522 -1.894054 0.444162 3.542556 -19.055292 -0.000001 -0.000000 -0.000001 -0.133209 -6.266492 -14.503306 -0.652526 2.703004 -10.283488 -0.670503 3.338094 -13.549390 -0.000002 -0.000003 -0.000003 0.199190 -3.162387 -14.923630 -1.208463 0.711250 -20.073473 -1.546360 5.866542 -25.904911 -0.000002 -0.000001 0.000001 -1.451078 -51.043725 -2.479616 1.540203 -3.520826 24.559286 -1.449245 55.877638 1.757568 -4.567399 -2.849576 -7.431520 0.389583 -20.532022 -7.595369 3.369920 -8.965463 4.038150 -2.998406 -2.157548 -0.600523 -0.000002 -0.000004 -0.000004 0.125542 -1.373896 1.440741 1.065144 -2.033081 8.964429 2.972012 -3.843937 22.368028 0.000002 0.000002 -0.000000 0.257408 3.030976 6.257509 0.288284 -2.446657 10.356023 0.557923 -3.165481 13.609071 0.000004 -0.000000 -0.000003 0.018850 5.210223 11.719743 -0.376860 -3.671572 16.929706 -0.292322 -4.509567 20.799596 0.000002 -0.000000 -0.000001 -0.712680 7.994586 15.447079 -1.379666 -3.861886 16.464854 -1.931132 -7.125443 33.635618 0.000001 -0.000001 -0.000001 -50.640149 25.881653 16.125281 76.150360 12.038848 -4.731698 -33.666720 10.961491 8.312155 -0.872831 0.000003 0.000002 0.000000 0.000000 0.000000 -57.414734 -18.586118 -16.688947 60.091560 -10.266019 11.307018 -12.365829 -22.162313 -17.170015 -0.971992 0.000003 -0.000002 -0.000000 0.000000 -0.000000 
2.401433 85.241478 -1.161990 -3.300410 -57.884405 -3.872501 23.183172 5.392238 -14.342907 10.904695 0.654811 -2.274848 10.911449 0.845751 -2.193732 -7.862597 8.340410 -10.726361 -27.799172 32.535299 -5.581945 -0.000001 0.000001 -0.000000 3.226290 -27.653698 0.837779 -53.510400 -69.251862 -51.850903 -4.806774 -78.407136 -4.906085 -1.380840 -16.862453 11.648790 3.434996 3.414073 3.174988 2.268423 -0.296266 -4.009667 -1.726906 0.699553 -0.450857 -0.000000 -0.000000 -0.000000 -0.380233 -0.991539 5.159271 0.090207 0.321394 -1.023482 0.628191 1.424256 -6.481061 0.000002 -0.000000 -0.000001 0.202314 -4.494553 -3.088183 0.005877 0.916053 -1.640559 0.427208 3.480262 -18.770048 0.000001 -0.000001 -0.000000 -0.109193 -6.443371 -13.742087 -0.640111 2.633323 -9.980552 -0.665814 3.290801 -13.344408 -0.000003 -0.000003 -0.000000 0.172210 -3.444607 -13.684608 -1.200363 0.626623 -19.732063 -1.545654 5.830467 -25.761993 0.000003 0.000000 0.000001 -1.493194 -49.611936 -2.698965 5.879533 -0.285408 25.567737 -1.447464 55.845314 1.756098 -3.809725 -3.473356 -6.259024 0.331139 -20.944092 -7.685846 3.366622 -9.174979 4.015236 -3.008031 -2.261214 -0.617165 -0.000001 -0.000003 -0.000000 0.186213 -1.497143 2.016225 1.043339 -2.000740 8.801511 2.951729 -3.824115 22.247098 0.000002 -0.000001 -0.000003 0.265752 2.967628 6.556310 0.278088 -2.400806 10.135798 0.545926 -3.127086 13.420013 -0.000001 0.000001 -0.000000 0.019373 5.220579 11.671706 -0.379522 -3.608691 16.638325 -0.299030 -4.451113 20.526679 -0.000001 -0.000000 -0.000001 -0.693089 8.069022 15.120101 -1.361738 -3.782275 16.119248 -1.934329 -7.044392 33.297104 0.000003 -0.000001 0.000001 -49.658696 25.287240 14.773730 75.015059 12.041759 -4.422693 -33.035289 11.771118 8.221411 -0.816623 0.000001 -0.000001 0.000000 0.000001 -0.000000 -56.379991 -17.729213 -15.938656 58.925203 -10.178761 11.262038 -11.850902 -23.252018 -16.781666 -1.302928 -0.000011 0.000004 -0.000000 -0.000001 0.000000 
2.298643 85.888252 -1.331114 -3.058612 -57.133590 -3.466980 23.008191 5.644442 -14.546937 10.665523 0.692602 -2.449451 10.674719 0.875420 -2.365224 -7.103906 8.143545 -10.107873 -27.446921 32.376545 -5.098701 0.000001 0.000000 0.000001 3.418750 -28.416304 0.140045 -43.423809 -68.133589 -46.552944 -3.883010 -75.761223 -4.006250 -0.892506 -17.635950 13.216215 3.483385 2.690302 3.056027 2.272517 -0.660969 -4.053457 -1.711737 0.518544 -0.478234 0.000001 0.000001 -0.000005 -0.371956 -0.960067 5.027231 0.091685 0.325241 -1.040162 0.591673 1.350378 -6.145947 0.000003 -0.000000 -0.000001 0.202244 -4.571183 -2.750734 0.005409 0.891889 -1.533854 0.410769 3.418630 -18.488217 0.000000 0.000004 -0.000002 -0.076752 -6.658250 -12.814849 -0.629154 2.573510 -9.720339 -0.660801 3.241973 -13.132584 -0.000001 -0.000001 -0.000005 0.149199 -3.762588 -12.290773 -1.190751 0.532102 -19.350682 -1.544783 5.790628 -25.603977 0.000001 -0.000002 -0.000002 -1.803061 -47.923100 -2.861436 10.781714 3.507874 27.119845 -1.432661 55.573052 1.743954 -3.771677 -4.015555 -4.915184 0.266165 -21.395124 -7.785683 3.362887 -9.404373 3.990123 -3.018614 -2.374684 -0.635426 -0.000001 -0.000001 0.000000 0.270752 -1.663887 2.799775 1.036675 -1.990825 8.751637 2.927526 -3.800340 22.102393 0.000002 0.000003 -0.000001 0.278141 2.877955 6.979632 0.273357 -2.379345 10.032706 0.533293 -3.086013 13.218056 0.000002 0.000001 -0.000000 0.019679 5.226585 11.643861 -0.380934 -3.571965 16.468240 -0.305469 -4.392819 20.254590 -0.000001 0.000002 0.000003 -0.669125 8.157824 14.729346 -1.349967 -3.731285 15.897557 -1.936960 -6.966083 32.970143 0.000000 0.000001 0.000000 -48.458211 24.709838 13.142645 73.428946 12.051118 -4.046475 -32.205687 12.519533 8.124678 -0.770680 0.000006 0.000003 0.000000 0.000001 -0.000000 -55.142757 -16.644053 -15.083211 57.330279 -10.182719 11.174732 -11.031169 -24.230668 -16.210257 -1.925007 -0.000007 -0.000001 -0.000000 -0.000001 0.000000 
